Coordinates
version=1
nRows=20
nColumns=30
inDegrees=yes

Units are S.I. units (second, meters, Newtons, ...)
Angles are in degrees.

endheader
time	floatyaw	floatroll	floatpitch	floatx	floaty	floatz	pro_sup_l	deviation_l	flexion_l	cmc_flexion_l	cmc_abduction_l	mp_flexion_l	ip_flexion_l	2mcp_flexion_l	2mcp_abduction_l	2pm_flexion_l	2md_flexion_l	3mcp_flexion_l	3mcp_abduction_l	3pm_flexion_l	3md_flexion_l	4mcp_flexion_l	4mcp_abduction_l	4pm_flexion_l	4md_flexion_l	5mcp_flexion_l	5mcp_abduction_l	5pm_flexion_l	5md_flexion_l
0.005000	-1.089067	-4.156866	93.821839	0.164157	-0.267653	0.159727	103.318320	21.808613	24.925687	-8.326622	33.862321	-22.877800	-20.605147	55.779463	11.217797	29.736572	31.088307	48.987041	7.476544	39.895011	59.708500	41.159630	-6.227483	62.352446	58.091530	22.791050	-9.276982	55.236183	52.642081
0.015000	-1.089067	-4.156866	93.821839	0.163779	-0.266869	0.158709	102.571729	21.413507	24.538521	-7.608486	33.770339	-23.212382	-22.842201	56.294952	11.164831	29.767814	31.524071	48.756192	7.414388	40.763872	61.043151	40.874574	-6.345716	63.179875	59.422186	22.630965	-9.156644	55.406821	53.008284
0.025000	-1.089067	-4.156866	93.821839	0.163315	-0.266073	0.157651	101.835926	21.016363	24.095428	-6.842298	33.786683	-23.451823	-25.339270	56.781331	11.096639	29.833193	31.952406	48.519994	7.361051	41.647580	62.354691	40.592575	-6.462900	64.029556	60.746336	22.426613	-9.049011	55.651789	53.415398
0.035000	-1.089067	-4.156866	93.821839	0.162781	-0.265331	0.156583	101.142025	20.641584	23.627627	-6.106466	33.891469	-23.570562	-27.911538	57.220798	11.025689	29.916101	32.355497	48.312212	7.318163	42.452052	63.586202	40.342422	-6.568583	64.828080	62.023339	22.208547	-8.955088	55.935867	53.850545
0.045000	-1.089067	-4.156866	93.821839	0.162201	-0.264708	0.155548	100.522336	20.315643	23.185652	-5.478083	34.064471	-23.548900	-30.344059	57.572323	10.965154	30.003109	32.717410	48.152480	7.284903	43.083412	64.670579	40.142932	-6.652691	65.489188	63.198168	22.013819	-8.879328	56.195921	54.284238
0.055000	-1.089067	-4.156866	93.821839	0.161599	-0.264256	0.154602	100.008473	20.062378	22.817083	-5.009439	34.285503	-23.391659	-32.448188	57.796411	10.924305	30.083715	33.027585	48.047463	7.259051	43.480103	65.551950	40.002324	-6.709496	65.944252	64.215779	21.876536	-8.826363	56.364513	54.680215
0.065000	-1.089067	-4.156866	93.821839	0.160997	-0.263991	0.153813	99.626890	19.897693	22.544813	-4.713131	34.533842	-23.135443	-34.108400	57.882259	10.904531	30.149480	33.278360	47.993818	7.238193	43.638017	66.200378	39.920372	-6.739795	66.169066	65.036039	21.817771	-8.796237	56.399578	55.007854
0.075000	-1.089067	-4.156866	93.821839	0.160416	-0.263889	0.153236	99.391702	19.824819	22.358551	-4.563003	34.789809	-22.839130	-35.302393	57.860348	10.898947	30.195505	33.459998	47.981627	7.220532	43.614456	66.614550	39.891646	-6.750235	66.194511	65.642876	21.839436	-8.782548	56.305469	55.250274
0.085000	-1.089067	-4.156866	93.821839	0.159881	-0.263901	0.152899	99.297207	19.831855	22.224556	-4.508877	35.038329	-22.563007	-36.091011	57.791617	10.896330	30.223609	33.559857	47.997893	7.205095	43.506096	66.815775	39.907775	-6.750251	66.095368	66.045064	21.924479	-8.775454	56.133406	55.404635
0.095000	-1.089067	-4.156866	93.821839	0.159422	-0.263969	0.152786	99.314770	19.893630	22.106506	-4.496772	35.270978	-22.348461	-36.585431	57.740341	10.886945	30.242792	33.568906	48.030206	7.191597	43.410168	66.841037	39.958309	-6.748309	65.961966	66.270654	22.043055	-8.766879	55.960300	55.477239
0.105000	-1.089067	-4.156866	93.821839	0.159068	-0.264047	0.152837	99.398122	19.978368	21.983570	-4.485928	35.483616	-22.208228	-36.904909	57.747943	10.866725	30.263862	33.491772	48.069949	7.180225	43.387350	66.739592	40.031000	-6.749206	65.867525	66.359531	22.162334	-8.753471	55.856141	55.478904
0.115000	-1.089067	-4.156866	93.821839	0.158835	-0.264108	0.152968	99.496665	20.056690	21.855481	-4.457275	35.670854	-22.130037	-37.140418	57.821402	10.837932	30.291334	33.352186	48.113384	7.171404	43.444090	66.570481	40.112187	-6.753453	65.845722	66.357245	22.256348	-8.735486	55.855204	55.423485
0.125000	-1.089067	-4.156866	93.821839	0.158716	-0.264149	0.153101	99.571034	20.108882	21.734759	-4.412301	35.822263	-22.089415	-37.336792	57.938512	10.806891	30.319927	33.188182	48.159598	7.165476	43.541920	66.395143	40.187490	-6.758635	65.887582	66.309972	22.312030	-8.713617	55.944194	55.328410
0.135000	-1.089067	-4.156866	93.821839	0.158681	-0.264175	0.153184	99.603257	20.127464	21.634373	-4.364787	35.924663	-22.063960	-37.497819	58.063193	10.780666	30.339734	33.038818	48.206569	7.162357	43.627193	66.263563	40.243099	-6.761760	65.957044	66.258703	22.329295	-8.687146	56.072336	55.214864
0.145000	-1.089067	-4.156866	93.821839	0.158688	-0.264197	0.153207	99.597108	20.115008	21.559581	-4.330058	35.970016	-22.042264	-37.607877	58.161955	10.764319	30.346305	32.930395	48.248343	7.161345	43.663965	66.199881	40.267946	-6.761329	66.015560	66.232302	22.316214	-8.654849	56.177399	55.106400
0.155000	-1.089067	-4.156866	93.821839	0.158695	-0.264224	0.153191	99.570007	20.079583	21.507187	-4.316607	35.963179	-22.024569	-37.656213	58.215146	10.759486	30.347205	32.870123	48.275722	7.161260	43.651913	66.196830	40.256402	-6.758159	66.042320	66.242092	22.282901	-8.617233	56.213557	55.025681
0.165000	-1.089067	-4.156866	93.821839	0.158681	-0.264260	0.153173	99.541832	20.030708	21.469799	-4.323211	35.923132	-22.016808	-37.650757	58.220413	10.764349	30.359270	32.849685	48.280381	7.160871	43.620949	66.224181	40.210443	-6.754730	66.040226	66.281726	22.237924	-8.577563	56.167176	54.989575
0.175000	-1.089067	-4.156866	93.821839	0.158643	-0.264302	0.153181	99.526178	19.977203	21.440691	-4.341594	35.876122	-22.022682	-37.616518	58.189451	10.774675	30.397838	32.854890	48.260028	7.159372	43.608534	66.247176	40.140247	-6.753628	66.026788	66.333517	22.188604	-8.540564	56.055013	55.003915
0.185000	-1.089067	-4.156866	93.821839	0.158593	-0.264342	0.153226	99.526911	19.926476	21.416403	-4.361907	35.845232	-22.038715	-37.583260	58.141464	10.785454	30.465141	32.874637	48.221438	7.156604	43.635444	66.244070	40.062657	-6.756103	66.018191	66.378181	22.143356	-8.509931	55.909654	55.060662
0.195000	-1.089067	-4.156866	93.821839	0.158548	-0.264371	0.153298	99.539652	19.884102	21.396535	-4.377452	35.842870	-22.054875	-37.572023	58.096623	10.792482	30.546108	32.903856	48.179139	7.152939	43.694908	66.212965	39.997319	-6.761558	66.017991	66.402835	22.112717	-8.486676	55.762548	55.139940
